<svg xmlns="http://www.w3.org/2000/svg" width="960" height="210" viewBox="0 0 960 210" role="img" aria-labelledby="title desc">
  <title id="title">Axymorrsen</title>
  <desc id="desc">Android and Linux systems, edge AI, and infrastructure tooling.</desc>
  <style>
    .bg{fill:#f6f8fa;stroke:#d0d7de}
    .grid{stroke:#d8dee4}
    .main{fill:#1f2328}
    .muted{fill:#59636e}
    .accent{stroke:#57606a}
    .dot{fill:#57606a}
    @media (prefers-color-scheme: dark){
      .bg{fill:#0d1117;stroke:#30363d}
      .grid{stroke:#21262d}
      .main{fill:#f0f6fc}
      .muted{fill:#8b949e}
      .accent{stroke:#8b949e}
      .dot{fill:#8b949e}
    }
  </style>

  <rect class="bg" x="1" y="1" width="958" height="208" rx="18"/>

  <g class="grid" stroke-width="1" opacity=".46">
    <path d="M0 52.5H960M0 105H960M0 157.5H960"/>
    <path d="M120 0V210M240 0V210M360 0V210M480 0V210M600 0V210M720 0V210M840 0V210"/>
  </g>

  <g fill="none" class="accent" stroke-width="1.5" opacity=".7">
    <path d="M680 145 C720 145 725 100 765 100 S810 65 850 65"/>
    <path d="M680 145 H635"/>
  </g>
  <circle class="dot" cx="635" cy="145" r="3.5"/>
  <circle class="dot" cx="765" cy="100" r="3.5"/>
  <circle class="dot" cx="850" cy="65" r="3.5"/>

  <text class="main" x="48" y="92" font-family="-apple-system,BlinkMacSystemFont,'Segoe UI',sans-serif" font-size="42" font-weight="600" letter-spacing=".2">Axymorrsen</text>
  <text class="muted" x="50" y="126" font-family="-apple-system,BlinkMacSystemFont,'Segoe UI',sans-serif" font-size="16" letter-spacing=".35">Android / Linux systems · edge AI · infrastructure</text>
  <text class="muted" x="50" y="164" font-family="ui-monospace,SFMono-Regular,Consolas,'Liberation Mono',monospace" font-size="12">build → measure → verify → document</text>
</svg>
